<?xml version="1.0" encoding="UTF-8"?>
<svg xmlns="http://www.w3.org/2000/svg" viewBox="0 0 64 64" role="img" aria-labelledby="title">
  <title id="title">FreshCart icon</title>
  <defs>
    <style>.green{fill:#28a745;}</style>
  </defs>
  <!-- Cart frame -->
  <path class="green" d="M6 8h18l4 22h28l4-12H24l-2-10H6zM32 46a6 6 0 1 1-12 0 6 6 0 0 1 12 0zm26 0a6 6 0 1 1-12 0 6 6 0 0 1 12 0z"/>
  <!-- Leaf -->
  <path class="green" d="M44 16c-9 2-16 8-18 16 9-4 15-3 20-1-2 4-6 7-10 9 9 1 18-6 16-16-1-5-4-7-8-8z" opacity="0.95"/>
</svg>
